<?xml version="1.0" encoding="utf-8"?>
<!-- Generator: Adobe Illustrator 21.0.0, SVG Export Plug-In . SVG Version: 6.00 Build 0)  -->
<svg version="1.1" id="Layer_1" xmlns="http://www.w3.org/2000/svg" xmlns:xlink="http://www.w3.org/1999/xlink" x="0px" y="0px"
	 width="80px" height="40px" viewBox="0 0 80 40" enable-background="new 0 0 80 40" xml:space="preserve">
<symbol  id="logo_x5F_Allo_x5F_slogan_x5F_red_x5F_80x40_x5F_2" viewBox="-40.001 -20 80.001 40">
	<path id="Logo_3_" fill="#E31837" d="M30.689,13.685c-5.141,0.007-9.328-4.159-9.335-9.287s4.17-9.305,9.311-9.312
		c5.14-0.006,9.328,4.16,9.335,9.288C40.007,9.501,35.83,13.679,30.689,13.685z M30.669-1.427c-3.219,0.004-5.834,2.615-5.83,5.82
		s2.627,5.809,5.846,5.805c3.219-0.004,5.835-2.615,5.831-5.82C36.511,1.173,33.888-1.431,30.669-1.427z M30.677,7.176
		c-1.545,0-2.797-1.249-2.797-2.79s1.252-2.79,2.797-2.79c1.545,0,2.797,1.249,2.797,2.79C33.474,5.927,32.222,7.176,30.677,7.176z
		 M-3.492-4.913c0.184,0,0.371,0.028,0.555,0.087c0.954,0.305,1.48,1.323,1.175,2.276C-1.8-2.433-5.538,9.231-5.699,9.716
		C-5.71,9.748-5.722,9.78-5.734,9.811c-0.853,2.317-3.082,3.871-5.565,3.874c-2.504,0.003-4.753-1.572-5.597-3.918
		c-0.005-0.014-0.01-0.029-0.015-0.043c-0.157-0.473-3.811-11.769-3.966-12.249c-0.308-0.951,0.215-1.972,1.168-2.279
		s1.975,0.215,2.283,1.166c1.295,4.002,3.756,11.606,3.951,12.202c0.333,0.9,1.203,1.502,2.171,1.501
		c0.976-0.001,1.849-0.615,2.174-1.526c0.001-0.002,0.002-0.004,0.002-0.007c0.239-0.734,2.714-8.452,3.91-12.186
		C-4.97-4.422-4.259-4.912-3.492-4.913 M18.023-4.919c0.184,0,0.371,0.028,0.555,0.087c0.954,0.305,1.479,1.323,1.174,2.276
		C19.715-2.439,15.977,9.225,15.816,9.71c-0.01,0.032-0.022,0.064-0.035,0.095c-0.853,2.317-3.081,3.871-5.564,3.874
		c-2.504,0.003-4.753-1.571-5.597-3.918C4.615,9.746,4.61,9.732,4.605,9.718C4.448,9.244,0.794-2.051,0.639-2.532
		C0.331-3.483,0.854-4.504,1.807-4.811C2.76-5.118,3.782-4.596,4.09-3.645C5.384,0.357,7.845,7.962,8.04,8.558
		c0.333,0.9,1.203,1.502,2.172,1.501c0.975-0.001,1.849-0.615,2.174-1.526c0.001-0.002,0.002-0.004,0.002-0.007
		c0.239-0.734,2.714-8.452,3.91-12.186C16.545-4.428,17.256-4.918,18.023-4.919 M-24.298,10.765
		c-1.195,2.233-3.686,3.215-6.198,2.844c-0.015-0.002-0.03-0.005-0.045-0.007c-0.53-0.091-6.299-0.862-7.451-1.07
		c-1-0.18-1.664-1.136-1.484-2.134c0.181-0.999,1.138-1.661,2.138-1.482c3.117,0.562,6.885,0.971,7.399,1.061
		c0.972,0.135,1.932-0.081,2.394-0.944c0.183-0.341,0.275-0.707,0.274-1.088l-0.001-0.792c-1.184-0.191-2.839-0.457-4.206-0.677
		l-2.472-0.397c-3.139-0.505-6.046-1.586-6.051-6.04c-0.004-3.24,2.632-4.938,5.239-4.942c0.554-0.001,0.862-0.001,1.03-0.001
		c0.041,0,0.081,0.001,0.121,0.002c0.015,0,0.03-0.001,0.045-0.001V-4.9c0.006,0,0.013,0.001,0.019,0.001v-0.004l6.669-0.009
		c0.038-0.002,0.077-0.002,0.116-0.002c1.739,0.032,3.156,1.47,3.158,3.205l0.01,7.257c0,0.022,0,0.045,0,0.067l0.003,2.324
		C-23.589,8.92-23.834,9.897-24.298,10.765z M-27.286-0.995c0-0.149-0.121-0.27-0.271-0.27h-7.09c-0.92,0-1.669,0.747-1.669,1.664
		c0,0.824,0.616,1.671,1.434,1.787l7.596,1.197C-27.285,3.383-27.285-0.995-27.286-0.995z M-37.408-9.438h-1.757v0.485h4.103v-0.485
		h-1.757V-13.6h-0.588L-37.408-9.438L-37.408-9.438z M-30.019-13.6v3.83l-3.336-3.83h-0.484v4.646h0.588v-3.744l3.261,3.744h0.559
		V-13.6H-30.019z M-23.656-13.6h-4.147v4.646h0.588v-4.162h3.001v4.162h0.588v-4.162h0.536v-1.454h-0.566
		C-23.656-14.57-23.656-13.6-23.656-13.6z M-17.979-13.6h-0.588v1.806h-1.437l-1.563-1.806h-0.723l1.631,1.865
		c-0.834,0.126-1.444,0.604-1.444,1.374v0.006c0,0.87,0.759,1.401,1.966,1.401h2.159V-13.6H-17.979z M-20.184-9.438
		c-0.841,0-1.325-0.358-1.325-0.922v-0.007c0-0.638,0.596-0.956,1.407-0.956h1.534v1.885H-20.184z M-12.534-13.6v3.83l-3.336-3.83
		h-0.484v4.646h0.588v-3.744l3.262,3.744h0.559V-13.6H-12.534z M-15.251-7.812h0.447c0.082-0.213,0.29-0.346,0.655-0.346
		s0.573,0.133,0.655,0.346h0.447c-0.052-0.479-0.477-0.757-1.102-0.757S-15.199-8.29-15.251-7.812z M-7.488-8.953H-6.9v-4.162h2.473
		v4.162h0.596v-4.162h2.472v4.162h0.596v-4.162h0.529v-1.454H-0.8v0.97h-6.687L-7.488-8.953L-7.488-8.953z M0.692-11.29v0.014
		c0,1.28,1.08,2.402,2.666,2.402s2.651-1.108,2.651-2.39v-0.013c0-1.281-1.08-2.403-2.666-2.403S0.692-12.571,0.692-11.29z
		 M5.398-11.29v0.014c0,1.055-0.864,1.918-2.055,1.918s-2.04-0.85-2.04-1.905v-0.013c0-1.056,0.863-1.919,2.055-1.919
		S5.398-12.346,5.398-11.29z M14.331-8.953L12.41-11.23l1.996-2.369h-0.7l-1.668,2.004L10.369-13.6H9.691l1.996,2.369L9.766-8.953
		h0.692l1.594-1.912l1.593,1.912H14.331z M15.033-11.29v0.014c0,1.28,1.08,2.402,2.666,2.402c1.586,0,2.65-1.108,2.65-2.39v-0.013
		c0-1.281-1.08-2.403-2.666-2.403S15.033-12.571,15.033-11.29z M19.739-11.29v0.014c0,1.055-0.864,1.918-2.055,1.918
		s-2.041-0.85-2.041-1.905v-0.013c0-1.056,0.864-1.919,2.056-1.919S19.739-12.346,19.739-11.29z M24.828-11.774
		c-0.454-0.126-0.99-0.186-1.4-0.186c-1.214,0-1.951,0.444-1.951,1.553v1.454h0.596v-1.361c0-0.843,0.455-1.168,1.408-1.168
		c0.409,0,0.894,0.06,1.348,0.192v2.337h0.596V-13.6h-0.596L24.828-11.774L24.828-11.774z M27.05-8.953h3.768v-0.479h-3.18v-1.586
		h2.845v-0.479h-2.845v-1.626h3.217V-13.6H27.05V-8.953z M32.19-8.953h0.588v-4.162h2.473v4.162h0.596v-4.162h2.472v4.162h0.596
		V-13.6H32.19V-8.953z"/>
	<rect id="Size_3_" x="-40" y="-20" fill="none" width="80" height="40"/>
</symbol>
<use xlink:href="#logo_x5F_Allo_x5F_slogan_x5F_red_x5F_80x40_x5F_2"  width="80.001" height="40" x="-40.001" y="-20" transform="matrix(1 0 0 -1 39.9995 20)" overflow="visible"/>
</svg>
